<svg width="64" height="65" viewBox="0 0 64 65" fill="none" xmlns="http://www.w3.org/2000/svg">
<rect y="0.0383301" width="64" height="64" rx="32" fill="#FFF1F0"/>
<path d="M31.5469 20.0383C25.7313 20.0383 21 24.7697 21 30.5852C21 31.2297 21 36.2153 21 36.304C21 37.4671 21.9463 38.4133 23.1094 38.4133H23.9334C24.2237 39.2317 25.0052 39.8196 25.9219 39.8196C27.085 39.8196 28.0312 38.8733 28.0312 37.7102V31.9915C28.0312 30.8283 27.085 29.8821 25.9219 29.8821C25.0052 29.8821 24.2237 30.47 23.9334 31.2883H23.1094C22.8629 31.2883 22.6263 31.3312 22.4062 31.4093V30.5852C22.4062 25.5451 26.5067 21.4446 31.5469 21.4446C36.587 21.4446 40.6875 25.5451 40.6875 30.5852V31.4093C40.4674 31.3312 40.2309 31.2883 39.9844 31.2883H39.1603C38.8701 30.47 38.0885 29.8821 37.1719 29.8821C36.0088 29.8821 35.0625 30.8283 35.0625 31.9915V37.7102C35.0625 38.8733 36.0088 39.8196 37.1719 39.8196C37.3847 39.8196 37.5902 39.7876 37.7841 39.7287C37.5211 40.5941 36.7159 41.2258 35.7656 41.2258H33.5353C33.2451 40.4075 32.4635 39.8196 31.5469 39.8196C30.3838 39.8196 29.4375 40.7658 29.4375 41.929C29.4375 43.0921 30.3838 44.0383 31.5469 44.0383C32.4635 44.0383 33.2451 43.4504 33.5353 42.6321H35.7656C37.7041 42.6321 39.2812 41.055 39.2812 39.1165V38.4133H39.9844C41.1475 38.4133 42.0938 37.4671 42.0938 36.304C42.0938 36.2166 42.0938 31.2292 42.0938 30.5852C42.0938 24.7697 37.3624 20.0383 31.5469 20.0383ZM25.2188 31.9915C25.2188 31.6038 25.5342 31.2883 25.9219 31.2883C26.3096 31.2883 26.625 31.6038 26.625 31.9915V37.7102C26.625 38.0979 26.3096 38.4133 25.9219 38.4133C25.5342 38.4133 25.2188 38.0979 25.2188 37.7102V31.9915ZM23.1094 32.6946H23.8125V37.0071H23.1094C22.7217 37.0071 22.4062 36.6917 22.4062 36.304V33.3977C22.4062 33.01 22.7217 32.6946 23.1094 32.6946ZM31.5469 42.6321C31.1592 42.6321 30.8438 42.3167 30.8438 41.929C30.8438 41.5413 31.1592 41.2258 31.5469 41.2258C31.9346 41.2258 32.25 41.5413 32.25 41.929C32.25 42.3167 31.9346 42.6321 31.5469 42.6321ZM37.875 37.7102C37.875 38.0979 37.5596 38.4133 37.1719 38.4133C36.7842 38.4133 36.4688 38.0979 36.4688 37.7102V31.9915C36.4688 31.6038 36.7842 31.2883 37.1719 31.2883C37.5596 31.2883 37.875 31.6038 37.875 31.9915V37.7102ZM40.6875 36.304C40.6875 36.6917 40.3721 37.0071 39.9844 37.0071H39.2812V32.6946H39.9844C40.3721 32.6946 40.6875 33.01 40.6875 33.3977V36.304Z" fill="#FF736A"/>
</svg>
