<svg width="64" height="65" viewBox="0 0 64 65" fill="none" xmlns="http://www.w3.org/2000/svg">
<rect y="0.0383301" width="64" height="64" rx="32" fill="#FFF1F0"/>
<path d="M43.2969 20.0383H40.4844C40.0961 20.0383 39.7812 20.3531 39.7812 20.7415V21.4446H33.9884C33.6982 20.6262 32.9166 20.0383 32 20.0383C31.0834 20.0383 30.3018 20.6262 30.0116 21.4446H24.2188V20.7415C24.2188 20.3531 23.9039 20.0383 23.5156 20.0383H20.7031C20.3148 20.0383 20 20.3531 20 20.7415V23.554C20 23.9423 20.3148 24.2571 20.7031 24.2571H23.5156C23.9039 24.2571 24.2188 23.9423 24.2188 23.554V22.8415H27.1427C24.606 24.448 23.064 27.1622 22.8785 30.0434C22.0502 30.3282 21.4531 31.1146 21.4531 32.0383C21.4531 33.2014 22.3994 34.1477 23.5625 34.1477C24.7256 34.1477 25.6719 33.2014 25.6719 32.0383C25.6719 31.1299 25.0946 30.3537 24.2877 30.0574C24.5373 26.7458 26.9219 23.8936 30.1108 23.0844C30.4564 23.7787 31.1732 24.2571 32 24.2571C32.8268 24.2571 33.5436 23.7787 33.8892 23.0844C37.0781 23.8937 39.4627 26.7459 39.7123 30.0574C38.9054 30.3537 38.3281 31.1299 38.3281 32.0383C38.3281 33.2014 39.2744 34.1477 40.4375 34.1477C41.6006 34.1477 42.5469 33.2014 42.5469 32.0383C42.5469 31.1146 41.9498 30.3282 41.1215 30.0434C40.9356 27.1564 39.389 24.4543 36.8573 22.8508H39.7812V23.554C39.7812 23.9423 40.0961 24.2571 40.4844 24.2571H43.2969C43.6852 24.2571 44 23.9423 44 23.554V20.7415C44 20.3531 43.6852 20.0383 43.2969 20.0383ZM22.8125 22.8508H21.4062V21.4446H22.8125V22.8508ZM23.5625 32.7415C23.1748 32.7415 22.8594 32.426 22.8594 32.0383C22.8594 31.6506 23.1748 31.3352 23.5625 31.3352C23.9502 31.3352 24.2656 31.6506 24.2656 32.0383C24.2656 32.426 23.9502 32.7415 23.5625 32.7415ZM32 22.8508C31.6123 22.8508 31.2969 22.5354 31.2969 22.1477C31.2969 21.76 31.6123 21.4446 32 21.4446C32.3877 21.4446 32.7031 21.76 32.7031 22.1477C32.7031 22.5354 32.3877 22.8508 32 22.8508ZM40.4375 31.3352C40.8252 31.3352 41.1406 31.6506 41.1406 32.0383C41.1406 32.426 40.8252 32.7415 40.4375 32.7415C40.0498 32.7415 39.7344 32.426 39.7344 32.0383C39.7344 31.6506 40.0498 31.3352 40.4375 31.3352ZM42.5938 22.8508H41.1875V21.4446H42.5938V22.8508Z" fill="#FF736A"/>
<path d="M38.21 34.4608L32.585 26.0233C32.5848 26.0231 32.5846 26.0228 32.5844 26.0224C32.5824 26.0194 32.5802 26.0166 32.5781 26.0136C32.5684 25.9996 32.5583 25.9861 32.5477 25.9729C32.2514 25.6048 31.6872 25.6296 31.4219 26.0136C31.4198 26.0166 31.4176 26.0194 31.4156 26.0224C31.4154 26.0228 31.4152 26.023 31.415 26.0233L25.79 34.4608C25.604 34.7397 25.6408 35.111 25.8778 35.348C27.2807 36.7509 28.1735 38.5846 28.4168 40.5465C28.3076 40.6348 28.2022 40.7293 28.1022 40.8316C27.4418 41.5071 27.0781 42.3963 27.0781 43.3352C27.0781 43.7235 27.3929 44.0383 27.7812 44.0383H36.2187C36.6071 44.0383 36.9219 43.7235 36.9219 43.3352C36.9219 42.3963 36.5582 41.5071 35.8978 40.8315C35.7978 40.7292 35.6924 40.6347 35.5832 40.5465C35.8264 38.5845 36.7193 36.7507 38.1221 35.348C38.3592 35.111 38.3959 34.7396 38.21 34.4608ZM32 34.1477C32.3877 34.1477 32.7031 34.4631 32.7031 34.8508C32.7031 35.2385 32.3877 35.554 32 35.554C31.6123 35.554 31.2969 35.2385 31.2969 34.8508C31.2969 34.4631 31.6123 34.1477 32 34.1477ZM28.6043 42.6321C28.8968 41.7962 29.6899 41.179 30.5937 41.179H33.4062C34.3101 41.179 35.1032 41.7962 35.3957 42.6321H28.6043ZM34.2615 39.8797C33.9849 39.8091 33.6982 39.7727 33.4062 39.7727H30.5937C30.3018 39.7727 30.0151 39.8091 29.7385 39.8798C29.4094 37.9847 28.5549 36.2132 27.2705 34.7751L31.2969 28.7356V32.8624C30.4785 33.1527 29.8906 33.9342 29.8906 34.8509C29.8906 36.014 30.8369 36.9603 32 36.9603C33.1631 36.9603 34.1094 36.014 34.1094 34.8509C34.1094 33.9342 33.5215 33.1527 32.7031 32.8624V28.7356L36.7295 34.7751C35.4451 36.213 34.5905 37.9846 34.2615 39.8797Z" fill="#FF736A"/>
</svg>
