<svg width="64" height="65" viewBox="0 0 64 65" fill="none" xmlns="http://www.w3.org/2000/svg">
<rect y="0.0383301" width="64" height="64" rx="32" fill="#FDFAF0"/>
<path d="M43.3682 38.7078V25.7622H40.1912C39.8768 24.8759 39.0304 24.2392 38.0376 24.2392H37.2761V20.0383L31.0278 22.7162H23.569V25.7622H20.523V38.7078H19V40.6369C19 42.5125 20.5259 44.0383 22.4014 44.0383H41.4898C43.3653 44.0383 44.8912 42.5125 44.8912 40.6369V38.7078H43.3682ZM38.0376 25.7622C39.0481 25.8041 39.0473 27.2436 38.0376 27.2852H37.2761V25.7622H38.0376ZM31.9456 23.9799L35.7531 22.348V30.6994L31.9456 29.0675V23.9799ZM25.092 24.2392H30.4226V28.8082H29.6611H25.092V24.2392ZM26.6151 30.3312H28.1381V34.1388H26.6151V30.3312ZM22.046 27.2852H23.569V30.3312H25.092V35.6618H29.6611V33.3773H31.1841V31.8542H29.6611V30.3312H31.0278L37.2761 33.0091V28.8082H38.0376C39.0304 28.8082 39.8768 28.1716 40.1912 27.2852H41.8452V38.7078H35.4377L34.6762 39.4693H29.215L28.4535 38.7078H22.046V27.2852ZM43.3682 40.6369C43.3682 41.6727 42.5255 42.5153 41.4898 42.5153H22.4014C21.3656 42.5153 20.523 41.6727 20.523 40.6369V40.2308H27.8226L28.5842 40.9923H35.3071L36.0686 40.2308H43.3682V40.6369Z" fill="#EDCC67"/>
<path d="M26.6133 25.7625H28.8978V27.2855H26.6133V25.7625Z" fill="#EDCC67"/>
</svg>
