<svg width="64" height="65" viewBox="0 0 64 65" fill="none" xmlns="http://www.w3.org/2000/svg">
<rect y="0.0383301" width="64" height="64" rx="32" fill="#E9FCFF"/>
<path d="M43.507 23.3872H37.9151L37.3713 21.7557C37.0288 20.7285 36.0712 20.0383 34.9885 20.0383H29.5883C28.5055 20.0383 27.5479 20.7285 27.2055 21.7557L26.6617 23.3872H25.3116V21.9918C25.3116 20.9147 24.4353 20.0383 23.3581 20.0383H22.2419C21.1647 20.0383 20.2884 20.9147 20.2884 21.9918V23.4883C18.9729 23.8348 18 25.0342 18 26.4569V40.9686C18 42.6612 19.3771 44.0383 21.0698 44.0383H43.507C45.1996 44.0383 46.5767 42.6612 46.5767 40.9686V26.4569C46.5767 24.7643 45.1996 23.3872 43.507 23.3872ZM21.9628 21.9918C21.9628 21.8379 22.088 21.7127 22.2419 21.7127H23.3581C23.512 21.7127 23.6372 21.8379 23.6372 21.9918V23.3872H21.9628V21.9918ZM44.9023 40.9686C44.9023 41.738 44.2764 42.3639 43.507 42.3639H21.0698C20.3004 42.3639 19.6744 41.738 19.6744 40.9686V26.4569C19.6744 25.6875 20.3004 25.0616 21.0698 25.0616H27.2651C27.6255 25.0616 27.9454 24.831 28.0593 24.4891L28.794 22.2852C28.9082 21.9428 29.2273 21.7127 29.5883 21.7127H34.9885C35.3494 21.7127 35.6686 21.9428 35.7827 22.2852L36.5173 24.4891C36.6314 24.831 36.9513 25.0616 37.3116 25.0616H43.507C44.2764 25.0616 44.9023 25.6875 44.9023 26.4569V40.9686Z" fill="#24DDFE"/>
<path d="M42.3333 28.4105C42.7957 28.4105 43.1705 28.0357 43.1705 27.5733C43.1705 27.1109 42.7957 26.7361 42.3333 26.7361C41.8709 26.7361 41.4961 27.1109 41.4961 27.5733C41.4961 28.0357 41.8709 28.4105 42.3333 28.4105Z" fill="#24DDFE"/>
<path d="M23.9179 26.7361H22.2435C21.7811 26.7361 21.4062 27.1109 21.4062 27.5733C21.4062 28.0357 21.7811 28.4105 22.2435 28.4105H23.9179C24.3802 28.4105 24.7551 28.0357 24.7551 27.5733C24.7551 27.1109 24.3802 26.7361 23.9179 26.7361Z" fill="#24DDFE"/>
<path d="M32.2883 40.6894C28.1336 40.6894 24.7534 37.3092 24.7534 33.1545C24.7534 28.9998 28.1336 25.6196 32.2883 25.6196C36.443 25.6196 39.8232 28.9998 39.8232 33.1545C39.8232 37.3092 36.443 40.6894 32.2883 40.6894ZM32.2883 27.294C29.0568 27.294 26.4278 29.9231 26.4278 33.1545C26.4278 36.386 29.0568 39.015 32.2883 39.015C35.5198 39.015 38.1488 36.386 38.1488 33.1545C38.1488 29.9231 35.5198 27.294 32.2883 27.294Z" fill="#24DDFE"/>
<path d="M32.2883 37.3406C29.9802 37.3406 28.1023 35.4627 28.1023 33.1546C28.1023 30.8464 29.9802 28.9685 32.2883 28.9685C34.5965 28.9685 36.4744 30.8464 36.4744 33.1546C36.4744 35.4627 34.5965 37.3406 32.2883 37.3406ZM32.2883 30.6429C30.9034 30.6429 29.7767 31.7696 29.7767 33.1546C29.7767 34.5395 30.9034 35.6662 32.2883 35.6662C33.6733 35.6662 34.8 34.5395 34.8 33.1546C34.8 31.7696 33.6733 30.6429 32.2883 30.6429Z" fill="#24DDFE"/>
</svg>
