<svg width="64" height="65" viewBox="0 0 64 65" fill="none" xmlns="http://www.w3.org/2000/svg">
<rect y="0.0383301" width="64" height="64" rx="32" fill="#EFEEF8"/>
<path d="M42.0938 20.7415C42.0938 20.3531 41.779 20.0383 41.3906 20.0383H21.7031C21.3148 20.0383 21 20.3531 21 20.7415V43.3352C21 43.7236 21.3148 44.0383 21.7031 44.0383H41.3906C41.779 44.0383 42.0938 43.7236 42.0938 43.3352C42.0938 42.6193 42.0938 21.2928 42.0938 20.7415ZM40.6875 33.8267L33.3153 30.6321L40.6875 27.4374V33.8267ZM31.5469 29.8658L25.0941 27.0696H37.9997L31.5469 29.8658ZM29.7784 30.6321L22.4062 33.8267V27.4374L29.7784 30.6321ZM31.5469 31.3984L37.9997 34.1946H25.0941L31.5469 31.3984ZM40.6875 21.4446V25.6633H22.4062V21.4446H40.6875ZM22.4062 42.6321V35.6008H40.6875V42.6321H22.4062Z" fill="#5E53BA"/>
<path d="M24.5156 24.2571H35.7656C36.154 24.2571 36.4688 23.9423 36.4688 23.554C36.4688 23.1656 36.154 22.8508 35.7656 22.8508H24.5156C24.1273 22.8508 23.8125 23.1656 23.8125 23.554C23.8125 23.9423 24.1273 24.2571 24.5156 24.2571Z" fill="#5E53BA"/>
<path d="M27.3281 37.0071H24.5156C24.1273 37.0071 23.8125 37.3218 23.8125 37.7102V40.5227C23.8125 40.9111 24.1273 41.2258 24.5156 41.2258H27.3281C27.7165 41.2258 28.0312 40.9111 28.0312 40.5227V37.7102C28.0312 37.3218 27.7165 37.0071 27.3281 37.0071ZM26.625 39.8196H25.2188V38.4133H26.625V39.8196Z" fill="#5E53BA"/>
<path d="M32.9531 37.0071H30.1406C29.7523 37.0071 29.4375 37.3218 29.4375 37.7102V40.5227C29.4375 40.9111 29.7523 41.2258 30.1406 41.2258H32.9531C33.3415 41.2258 33.6562 40.9111 33.6562 40.5227V37.7102C33.6562 37.3218 33.3415 37.0071 32.9531 37.0071ZM32.25 39.8196H30.8438V38.4133H32.25V39.8196Z" fill="#5E53BA"/>
<path d="M38.5781 37.0071H35.7656C35.3773 37.0071 35.0625 37.3218 35.0625 37.7102V40.5227C35.0625 40.9111 35.3773 41.2258 35.7656 41.2258H38.5781C38.9665 41.2258 39.2812 40.9111 39.2812 40.5227V37.7102C39.2812 37.3218 38.9665 37.0071 38.5781 37.0071ZM37.875 39.8196H36.4688V38.4133H37.875V39.8196Z" fill="#5E53BA"/>
</svg>
