<svg width="64" height="65" viewBox="0 0 64 65" fill="none" xmlns="http://www.w3.org/2000/svg">
<rect y="0.0383301" width="64" height="64" rx="32" fill="#F1FAED"/>
<path d="M43.2969 20.0383H20.7031C20.3148 20.0383 20 20.3531 20 20.7415V37.6868C20 38.0751 20.3148 38.3899 20.7031 38.3899H29.8848V42.6321H26.3516C25.9633 42.6321 25.6484 42.9469 25.6484 43.3352C25.6484 43.7235 25.9633 44.0383 26.3516 44.0383H37.6484C38.0368 44.0383 38.3516 43.7235 38.3516 43.3352C38.3516 42.9469 38.0368 42.6321 37.6484 42.6321H34.1152V38.3899H43.2969C43.6852 38.3899 44 38.0751 44 37.6868V20.7415C44 20.3531 43.6852 20.0383 43.2969 20.0383ZM21.4062 21.4446H42.5938V34.1594H21.4062V21.4446ZM32.709 42.6321H31.291V38.3899H32.709V42.6321ZM42.5938 36.9836H21.4062V35.5657H42.5938V36.9836Z" fill="#71CD4E"/>
<path d="M39.0605 27.0989C37.8942 27.0989 36.9453 28.0478 36.9453 29.2141C36.9453 30.3805 37.8942 31.3293 39.0605 31.3293C40.2269 31.3293 41.1758 30.3805 41.1758 29.2141C41.1758 28.0478 40.2269 27.0989 39.0605 27.0989ZM39.0605 29.9231C38.6696 29.9231 38.3516 29.605 38.3516 29.2141C38.3516 28.8232 38.6696 28.5051 39.0605 28.5051C39.4515 28.5051 39.7695 28.8232 39.7695 29.2141C39.7695 29.605 39.4515 29.9231 39.0605 29.9231Z" fill="#71CD4E"/>
<path d="M34.8242 28.511H34.5012C32.9196 28.511 31.4779 29.2766 30.5879 30.5104C29.6979 29.2766 28.2561 28.511 26.6746 28.511H26.3516C25.9632 28.511 25.6484 28.8258 25.6484 29.2141C25.6484 29.6024 25.9632 29.9172 26.3516 29.9172H26.6746C28.151 29.9172 29.4554 30.8586 29.9206 32.2599C30.0161 32.5474 30.2849 32.7415 30.5879 32.7415C30.8908 32.7415 31.1598 32.5474 31.2552 32.2599C31.7203 30.8587 33.0247 29.9172 34.5012 29.9172H34.8242C35.2125 29.9172 35.5273 29.6024 35.5273 29.2141C35.5273 28.8258 35.2125 28.511 34.8242 28.511Z" fill="#71CD4E"/>
<path d="M28.4648 26.3899V23.5657C28.4648 23.1774 28.15 22.8625 27.7617 22.8625H24.9375C24.5492 22.8625 24.2344 23.1774 24.2344 23.5657V26.3899C24.2344 26.7782 24.5492 27.093 24.9375 27.093H27.7617C28.15 27.093 28.4648 26.7782 28.4648 26.3899ZM27.0586 25.6868H25.6406V24.2688H27.0586V25.6868Z" fill="#71CD4E"/>
<path d="M36.2344 22.8625H30.5859C30.1976 22.8625 29.8828 23.1774 29.8828 23.5657C29.8828 23.954 30.1976 24.2688 30.5859 24.2688H36.2344C36.6227 24.2688 36.9375 23.954 36.9375 23.5657C36.9375 23.1774 36.6227 22.8625 36.2344 22.8625Z" fill="#71CD4E"/>
<path d="M32.9414 27.093C33.3297 27.093 33.6445 26.7782 33.6445 26.3899C33.6445 26.0016 33.3297 25.6868 32.9414 25.6868H30.5859C30.1976 25.6868 29.8828 26.0016 29.8828 26.3899C29.8828 26.7782 30.1976 27.093 30.5859 27.093H32.9414Z" fill="#71CD4E"/>
</svg>
