<svg width="64" height="65" viewBox="0 0 64 65" fill="none" xmlns="http://www.w3.org/2000/svg">
<rect y="0.0383301" width="64" height="64" rx="32" fill="#E9FCFF"/>
<path d="M41.9765 20.0383H22.1176C20.95 20.0383 20 20.9883 20 22.156V41.9207C20 43.0884 20.95 44.0383 22.1176 44.0383H41.9765C43.1441 44.0383 44.0941 43.0884 44.0941 41.9207V22.156C44.0941 20.9883 43.1441 20.0383 41.9765 20.0383ZM22.1176 21.4501H41.9765C42.3657 21.4501 42.6824 21.7668 42.6824 22.156V25.6854H21.4118V22.156C21.4118 21.7668 21.7284 21.4501 22.1176 21.4501ZM41.9765 42.6266H22.1176C21.7284 42.6266 21.4118 42.3099 21.4118 41.9207V27.0972H42.6824V41.9207C42.6824 42.3099 42.3657 42.6266 41.9765 42.6266Z" fill="#24DDFE"/>
<path d="M34.4428 29.2718C34.0845 29.1183 33.6695 29.2843 33.516 29.6426L29.2807 39.5249C29.1271 39.8832 29.2931 40.2982 29.6514 40.4518C30.0098 40.6054 30.4248 40.4393 30.5783 40.0811L34.8135 30.1987C34.9672 29.8404 34.8011 29.4254 34.4428 29.2718Z" fill="#24DDFE"/>
<path d="M28.3644 31.5972C28.1209 31.2928 27.6766 31.2435 27.3723 31.487L23.8429 34.3105C23.49 34.5927 23.4898 35.1305 23.8429 35.4129L27.3723 38.2365C27.6767 38.48 28.121 38.4306 28.3644 38.1262C28.608 37.8218 28.5586 37.3776 28.2542 37.1341L25.4138 34.8617L28.2542 32.5894C28.5586 32.3459 28.608 31.9017 28.3644 31.5972Z" fill="#24DDFE"/>
<path d="M40.2544 34.3105L36.725 31.487C36.4206 31.2434 35.9763 31.2928 35.7328 31.5972C35.4893 31.9016 35.5386 32.3459 35.8431 32.5894L38.6835 34.8617L35.8431 37.1341C35.5386 37.3776 35.4893 37.8218 35.7328 38.1262C35.9767 38.431 36.421 38.4797 36.725 38.2364L40.2544 35.4129C40.6073 35.1307 40.6075 34.593 40.2544 34.3105Z" fill="#24DDFE"/>
<path d="M23.5765 24.2736C23.9663 24.2736 24.2824 23.9575 24.2824 23.5677C24.2824 23.1779 23.9663 22.8618 23.5765 22.8618C23.1866 22.8618 22.8706 23.1779 22.8706 23.5677C22.8706 23.9575 23.1866 24.2736 23.5765 24.2736Z" fill="#24DDFE"/>
<path d="M26.4012 24.2738C26.791 24.2738 27.1071 23.9578 27.1071 23.5679C27.1071 23.1781 26.791 22.8621 26.4012 22.8621C26.0113 22.8621 25.6953 23.1781 25.6953 23.5679C25.6953 23.9578 26.0113 24.2738 26.4012 24.2738Z" fill="#24DDFE"/>
<path d="M29.2254 24.2738C29.6153 24.2738 29.9313 23.9578 29.9313 23.5679C29.9313 23.1781 29.6153 22.8621 29.2254 22.8621C28.8356 22.8621 28.5195 23.1781 28.5195 23.5679C28.5195 23.9578 28.8356 24.2738 29.2254 24.2738Z" fill="#24DDFE"/>
<path d="M36.284 24.2738H40.5193C40.9091 24.2738 41.2252 23.9578 41.2252 23.5679C41.2252 23.1781 40.9091 22.8621 40.5193 22.8621H36.284C35.8942 22.8621 35.5781 23.1781 35.5781 23.5679C35.5781 23.9578 35.8942 24.2738 36.284 24.2738Z" fill="#24DDFE"/>
</svg>
