<svg width="64" height="65" viewBox="0 0 64 65" fill="none" xmlns="http://www.w3.org/2000/svg">
<rect y="0.0383301" width="64" height="64" rx="32" fill="#FDFAF0"/>
<path d="M20.7031 39.7258H28.4844V42.6321H26.375C25.9867 42.6321 25.6719 42.9469 25.6719 43.3352C25.6719 43.7235 25.9867 44.0383 26.375 44.0383H37.625C38.0133 44.0383 38.3281 43.7235 38.3281 43.3352C38.3281 42.9469 38.0133 42.6321 37.625 42.6321H35.5156V39.7258H43.2969C43.6852 39.7258 44 39.411 44 39.0227V23.554C44 23.1656 43.6852 22.8508 43.2969 22.8508H41.1875V20.7415C41.1875 20.3531 40.8727 20.0383 40.4844 20.0383H23.5156C23.1273 20.0383 22.8125 20.3531 22.8125 20.7415V22.8508H20.7031C20.3148 22.8508 20 23.1656 20 23.554V39.0227C20 39.411 20.3148 39.7258 20.7031 39.7258ZM34.1094 42.6321H29.8906V39.7258H34.1094V42.6321ZM24.2188 21.4446H39.7812V25.6633H24.2188V21.4446ZM24.2188 27.0696H39.7812V35.5071H24.2188V27.0696ZM21.4062 24.2571H22.8125V36.2102C22.8125 36.5985 23.1273 36.9133 23.5156 36.9133H40.4844C40.8727 36.9133 41.1875 36.5985 41.1875 36.2102V24.2571H42.5938V38.3196H21.4062V24.2571Z" fill="#EDCC67"/>
<path d="M26.375 24.2571C26.7633 24.2571 27.0781 23.9423 27.0781 23.554C27.0781 23.1656 26.7633 22.8508 26.375 22.8508C25.9867 22.8508 25.6719 23.1656 25.6719 23.554C25.6719 23.9423 25.9867 24.2571 26.375 24.2571Z" fill="#EDCC67"/>
<path d="M29.1875 24.2571C29.5758 24.2571 29.8906 23.9423 29.8906 23.554C29.8906 23.1656 29.5758 22.8508 29.1875 22.8508C28.7992 22.8508 28.4844 23.1656 28.4844 23.554C28.4844 23.9423 28.7992 24.2571 29.1875 24.2571Z" fill="#EDCC67"/>
<path d="M32 24.2571C32.3883 24.2571 32.7031 23.9423 32.7031 23.554C32.7031 23.1656 32.3883 22.8508 32 22.8508C31.6117 22.8508 31.2969 23.1656 31.2969 23.554C31.2969 23.9423 31.6117 24.2571 32 24.2571Z" fill="#EDCC67"/>
<path d="M37.2132 31.9915L38.1222 31.0824C38.4911 30.7136 38.3431 30.0834 37.8474 29.9182L33.6286 28.5119C33.376 28.4277 33.0974 28.4935 32.9091 28.6818C32.7208 28.8702 32.655 29.1487 32.7392 29.4013L34.1455 33.6201C34.2415 33.908 34.5109 34.1008 34.8126 34.1008C34.9969 34.1008 35.1764 34.0283 35.3097 33.8949L36.2188 32.9858L37.1279 33.8949C37.2652 34.0322 37.4451 34.1008 37.6251 34.1008C37.805 34.1008 37.985 34.0322 38.1222 33.8949C38.3968 33.6203 38.3968 33.1752 38.1222 32.9006L37.2132 31.9915ZM35.1199 32.096L34.518 30.2907L36.3234 30.8925L35.1199 32.096Z" fill="#EDCC67"/>
<path d="M30.5938 28.4758H26.375C25.9867 28.4758 25.6719 28.7906 25.6719 29.179C25.6719 29.5673 25.9867 29.8821 26.375 29.8821H30.5938C30.9821 29.8821 31.2969 29.5673 31.2969 29.179C31.2969 28.7906 30.9821 28.4758 30.5938 28.4758Z" fill="#EDCC67"/>
<path d="M30.5938 31.2883H26.375C25.9867 31.2883 25.6719 31.6031 25.6719 31.9915C25.6719 32.3798 25.9867 32.6946 26.375 32.6946H30.5938C30.9821 32.6946 31.2969 32.3798 31.2969 31.9915C31.2969 31.6031 30.9821 31.2883 30.5938 31.2883Z" fill="#EDCC67"/>
</svg>
