<svg width="24" height="24" viewBox="0 0 24 24" fill="none" xmlns="http://www.w3.org/2000/svg">
<path d="M14.8594 6.89766H19.5352V8.03204H14.8594V6.89766ZM10.1742 11.3859C11.2078 10.8914 11.7492 10.1391 11.7492 8.97657C11.7492 6.67735 10.0383 6.11954 8.0625 6.11954H2.625V17.6602H8.21484C10.3102 17.6602 12.2766 16.6523 12.2766 14.3086C12.2766 12.8602 11.5922 11.7891 10.1742 11.3859ZM5.16094 8.08829H7.53984C8.45625 8.08829 9.27891 8.34376 9.27891 9.40782C9.27891 10.3875 8.63906 10.7813 7.73203 10.7813H5.16094V8.08829ZM7.86797 15.7008H5.15859V12.5227H7.92188C9.0375 12.5227 9.74297 12.9891 9.74297 14.1703C9.74297 15.3328 8.90156 15.7008 7.86797 15.7008ZM21.3633 13.6031C21.3633 11.1305 19.9172 9.07032 17.3016 9.07032C14.7586 9.07032 13.0289 10.9852 13.0289 13.4953C13.0289 16.0969 14.6672 17.8828 17.3016 17.8828C19.2961 17.8828 20.5875 16.9852 21.2086 15.0703H19.1859C18.9656 15.7852 18.0703 16.1602 17.3742 16.1602C16.0289 16.1602 15.3258 15.3727 15.3258 14.0344H21.3469C21.3539 13.8961 21.3633 13.7508 21.3633 13.6031ZM15.3258 12.5859C15.3984 11.4867 16.132 10.8 17.2289 10.8C18.382 10.8 18.9586 11.4773 19.0594 12.5859H15.3258Z" fill="#7D7D7D"/>
</svg>
