<svg width="78" height="14" viewBox="0 0 78 14" fill="none" xmlns="http://www.w3.org/2000/svg">
<path d="M7 0L9.26297 3.88528L13.6574 4.83688L10.6616 8.18972L11.1145 12.6631L7 10.85L2.8855 12.6631L3.33843 8.18972L0.342604 4.83688L4.73703 3.88528L7 0Z" fill="#F3B63F"/>
<path d="M23 0L25.263 3.88528L29.6574 4.83688L26.6616 8.18972L27.1145 12.6631L23 10.85L18.8855 12.6631L19.3384 8.18972L16.3426 4.83688L20.737 3.88528L23 0Z" fill="#F3B63F"/>
<path d="M39 0L41.263 3.88528L45.6574 4.83688L42.6616 8.18972L43.1145 12.6631L39 10.85L34.8855 12.6631L35.3384 8.18972L32.3426 4.83688L36.737 3.88528L39 0Z" fill="#F3B63F"/>
<path d="M55 0L57.263 3.88528L61.6574 4.83688L58.6616 8.18972L59.1145 12.6631L55 10.85L50.8855 12.6631L51.3384 8.18972L48.3426 4.83688L52.737 3.88528L55 0Z" fill="#F3B63F"/>
<path d="M71 0L73.263 3.88528L77.6574 4.83688L74.6616 8.18972L75.1145 12.6631L71 10.85L66.8855 12.6631L67.3384 8.18972L64.3426 4.83688L68.737 3.88528L71 0Z" fill="#F3B63F"/>
</svg>
