<svg width="40" height="40" viewBox="0 0 40 40" fill="none" xmlns="http://www.w3.org/2000/svg">
<path opacity="0.4" d="M31.6666 14.9997C31.6666 17.4163 30.9499 19.633 29.7166 21.483C27.9166 24.1497 25.0666 26.033 21.7499 26.5163C21.1833 26.6163 20.5999 26.6663 19.9999 26.6663C19.3999 26.6663 18.8166 26.6163 18.2499 26.5163C14.9333 26.033 12.0833 24.1497 10.2833 21.483C9.04992 19.633 8.33325 17.4163 8.33325 14.9997C8.33325 8.54967 13.5499 3.33301 19.9999 3.33301C26.4499 3.33301 31.6666 8.54967 31.6666 14.9997Z" fill="#FF5B49"/>
<path d="M35.4167 30.7833L32.6667 31.4333C32.0501 31.5833 31.5667 32.05 31.4334 32.6667L30.85 35.1167C30.5334 36.45 28.8334 36.85 27.9501 35.8L20.0001 26.6667L12.05 35.8167C11.1667 36.8667 9.46672 36.4667 9.15005 35.1333L8.56672 32.6833C8.41672 32.0667 7.93338 31.5833 7.33338 31.45L4.58338 30.8C3.31672 30.5 2.86672 28.9167 3.78338 28L10.2834 21.5C12.0834 24.1667 14.9334 26.05 18.2501 26.5334C18.8167 26.6334 19.4001 26.6834 20.0001 26.6834C20.6001 26.6834 21.1834 26.6334 21.7501 26.5334C25.0667 26.05 27.9167 24.1667 29.7167 21.5L36.2167 28C37.1334 28.9 36.6834 30.4833 35.4167 30.7833Z" fill="#1872F2"/>
<path d="M20.9668 9.96699L21.9501 11.9336C22.0835 12.2003 22.4335 12.467 22.7501 12.517L24.5335 12.817C25.6668 13.0003 25.9335 13.8337 25.1168 14.6503L23.7335 16.0336C23.5001 16.267 23.3668 16.717 23.4501 17.0503L23.8501 18.767C24.1668 20.117 23.4501 20.6503 22.2501 19.9336L20.5835 18.9503C20.2835 18.767 19.7835 18.767 19.4835 18.9503L17.8168 19.9336C16.6168 20.6336 15.9001 20.117 16.2168 18.767L16.6168 17.0503C16.6835 16.7337 16.5668 16.267 16.3335 16.0336L14.9501 14.6503C14.1335 13.8337 14.4001 13.017 15.5335 12.817L17.3168 12.517C17.6168 12.467 17.9668 12.2003 18.1001 11.9336L19.0835 9.96699C19.5668 8.90033 20.4335 8.90033 20.9668 9.96699Z" fill="#1872F2"/>
</svg>
