<svg width="64" height="64" viewBox="0 0 64 64" fill="none" xmlns="http://www.w3.org/2000/svg">
<path opacity="0.4" d="M31.9999 5.33301C25.0133 5.33301 19.3333 11.013 19.3333 17.9997C19.3333 24.853 24.6933 30.3997 31.6799 30.6397C31.8933 30.613 32.1066 30.613 32.2666 30.6397C32.3199 30.6397 32.3466 30.6397 32.3999 30.6397C32.4266 30.6397 32.4266 30.6397 32.4533 30.6397C39.2799 30.3997 44.6399 24.853 44.6666 17.9997C44.6666 11.013 38.9866 5.33301 31.9999 5.33301Z" fill="#1872F2"/>
<path d="M45.5466 37.7337C38.1066 32.7737 25.9732 32.7737 18.4799 37.7337C15.0932 40.0003 13.2266 43.067 13.2266 46.347C13.2266 49.627 15.0932 52.667 18.4532 54.907C22.1866 57.4137 27.0932 58.667 31.9999 58.667C36.9066 58.667 41.8132 57.4137 45.5466 54.907C48.9066 52.6403 50.7732 49.6003 50.7732 46.2937C50.7466 43.0137 48.9066 39.9737 45.5466 37.7337Z" fill="#1872F2"/>
</svg>
