<svg width="20" height="21" viewBox="0 0 20 21" fill="none" xmlns="http://www.w3.org/2000/svg">
<path opacity="0.2" d="M13.6169 2.16602H6.39187C3.56687 2.16602 1.66687 4.14935 1.66687 7.09935V13.9077C1.66687 16.8493 3.56687 18.8327 6.39187 18.8327H13.6169C16.4419 18.8327 18.3335 16.8493 18.3335 13.9077V7.09935C18.3335 4.14935 16.4419 2.16602 13.6169 2.16602Z" fill="#FF5B49"/>
<path d="M9.01116 13.2067C8.82449 13.2067 8.63783 13.1359 8.49533 12.9934L6.51783 11.0159C6.23283 10.7309 6.23283 10.2692 6.51783 9.98505C6.80283 9.70005 7.26366 9.69922 7.54866 9.98422L9.01116 11.4467L12.4512 8.00672C12.7362 7.72172 13.197 7.72172 13.482 8.00672C13.767 8.29172 13.767 8.75339 13.482 9.03839L9.52699 12.9934C9.38449 13.1359 9.19783 13.2067 9.01116 13.2067Z" fill="#FF5B49"/>
</svg>
