<svg width="140" height="162" viewBox="0 0 140 162" fill="none" xmlns="http://www.w3.org/2000/svg">
<path d="M7.11843 138.707L10.6158 138.572C18.6908 102.732 47.0184 45.0898 61.0079 44.5469C71.0004 44.1592 66.5903 72.3514 80.5797 71.8085C89.5536 70.9599 106.741 36.7678 112.736 36.5351C116.234 36.3994 117.005 43.3747 122.5 43.1615C140.487 42.4635 184.863 -0.289364 176.369 0.0402318C169.974 0.288398 135.486 29.6478 121.996 30.1712C116.001 30.4039 117.1 27.359 113.886 27.4837C106.891 27.7551 90.1845 61.4283 80.192 61.816C71.1987 62.165 72.7275 37.0869 62.2352 37.494C49.7447 37.9787 16.4429 95.3132 7.11843 138.707Z" fill="white"/>
<path d="M5.11843 161.707L8.61579 161.572C16.6908 125.732 45.0184 68.0898 59.0079 67.5469C69.0004 67.1592 64.5903 95.3514 78.5797 94.8085C87.5536 93.9599 104.741 59.7678 110.736 59.5351C114.234 59.3994 115.005 66.3747 120.5 66.1615C138.487 65.4635 182.863 22.7106 174.369 23.0402C167.974 23.2884 133.486 52.6478 119.996 53.1712C114.001 53.4039 115.1 50.359 111.886 50.4837C104.891 50.7551 88.1845 84.4283 78.192 84.816C69.1987 85.165 70.7275 60.0869 60.2352 60.494C47.7447 60.9787 14.4429 118.313 5.11843 161.707Z" fill="#FF5B49"/>
</svg>
