<svg width="155" height="158" viewBox="0 0 155 158" fill="none" xmlns="http://www.w3.org/2000/svg">
<path d="M-20.8816 138.707L-17.3842 138.572C-9.30922 102.732 19.0184 45.0898 33.0079 44.5469C43.0004 44.1592 38.5903 72.3514 52.5797 71.8085C61.5536 70.9599 78.7407 36.7678 84.7362 36.5351C88.2335 36.3994 89.0046 43.3747 94.5004 43.1615C112.487 42.4635 156.863 -0.289364 148.369 0.0402318C141.974 0.288398 107.486 29.6478 93.9964 30.1712C88.0009 30.4039 89.1003 27.359 85.886 27.4837C78.8913 27.7551 62.1845 61.4283 52.192 61.816C43.1987 62.165 44.7275 37.0869 34.2352 37.494C21.7447 37.9787 -11.5571 95.3132 -20.8816 138.707Z" fill="white"/>
<path d="M-20.8816 157.707L-17.3842 157.572C-9.30922 121.732 19.0184 64.0898 33.0079 63.5469C43.0004 63.1592 38.5903 91.3514 52.5797 90.8085C61.5536 89.9599 78.7407 55.7678 84.7362 55.5351C88.2335 55.3994 89.0046 62.3747 94.5004 62.1615C112.487 61.4635 156.863 18.7106 148.369 19.0402C141.974 19.2884 107.486 48.6478 93.9964 49.1712C88.0009 49.4039 89.1003 46.359 85.886 46.4837C78.8913 46.7551 62.1845 80.4283 52.192 80.816C43.1987 81.165 44.7275 56.0869 34.2352 56.494C21.7447 56.9787 -11.5571 114.313 -20.8816 157.707Z" fill="#FF5B49"/>
</svg>
