<svg width="50" height="38" viewBox="0 0 50 38" fill="none" xmlns="http://www.w3.org/2000/svg">
<path d="M50 25C50 21.1653 49.1179 17.382 47.4218 13.9428C45.7258 10.5036 43.2613 7.50058 40.219 5.16617C37.1768 2.83175 33.6383 1.22848 29.8773 0.480368C26.1162 -0.267743 22.2336 -0.140637 18.5295 0.851854C14.8255 1.84435 11.3994 3.67562 8.51635 6.204C5.63328 8.73239 3.37048 11.8901 1.90301 15.4329C0.435539 18.9757 -0.197274 22.8086 0.0535269 26.6351C0.304328 30.4616 1.43202 34.1791 3.34936 37.5L13.6003 31.5816C12.5907 29.8331 11.9969 27.8757 11.8649 25.8609C11.7328 23.8462 12.066 21.828 12.8387 19.9626C13.6114 18.0972 14.8028 16.4346 16.3208 15.1033C17.8389 13.772 19.6428 12.8078 21.5931 12.2852C23.5434 11.7627 25.5877 11.6957 27.568 12.0896C29.5483 12.4835 31.4115 13.3277 33.0133 14.5569C34.6152 15.786 35.9128 17.3672 36.8058 19.178C37.6988 20.9889 38.1633 22.9809 38.1633 25H50Z" fill="#FFC7C1"/>
</svg>
