<svg width="16" height="16" viewBox="0 0 16 16" fill="none" xmlns="http://www.w3.org/2000/svg">
<path d="M5.3335 3.83301C5.06016 3.83301 4.8335 3.60634 4.8335 3.33301V1.33301C4.8335 1.05967 5.06016 0.833008 5.3335 0.833008C5.60683 0.833008 5.8335 1.05967 5.8335 1.33301V3.33301C5.8335 3.60634 5.60683 3.83301 5.3335 3.83301Z" fill="#7D7D7D"/>
<path d="M10.6665 3.83301C10.3932 3.83301 10.1665 3.60634 10.1665 3.33301V1.33301C10.1665 1.05967 10.3932 0.833008 10.6665 0.833008C10.9398 0.833008 11.1665 1.05967 11.1665 1.33301V3.33301C11.1665 3.60634 10.9398 3.83301 10.6665 3.83301Z" fill="#7D7D7D"/>
<path d="M10.6667 15.1663H5.33333C2.9 15.1663 1.5 13.7663 1.5 11.333V5.66634C1.5 3.23301 2.9 1.83301 5.33333 1.83301H10.6667C13.1 1.83301 14.5 3.23301 14.5 5.66634V11.333C14.5 13.7663 13.1 15.1663 10.6667 15.1663ZM5.33333 2.83301C3.42667 2.83301 2.5 3.75967 2.5 5.66634V11.333C2.5 13.2397 3.42667 14.1663 5.33333 14.1663H10.6667C12.5733 14.1663 13.5 13.2397 13.5 11.333V5.66634C13.5 3.75967 12.5733 2.83301 10.6667 2.83301H5.33333Z" fill="#7D7D7D"/>
<path d="M10.6668 7.83301H5.3335C5.06016 7.83301 4.8335 7.60634 4.8335 7.33301C4.8335 7.05967 5.06016 6.83301 5.3335 6.83301H10.6668C10.9402 6.83301 11.1668 7.05967 11.1668 7.33301C11.1668 7.60634 10.9402 7.83301 10.6668 7.83301Z" fill="#7D7D7D"/>
<path d="M8.00016 11.167H5.3335C5.06016 11.167 4.8335 10.9403 4.8335 10.667C4.8335 10.3937 5.06016 10.167 5.3335 10.167H8.00016C8.2735 10.167 8.50016 10.3937 8.50016 10.667C8.50016 10.9403 8.2735 11.167 8.00016 11.167Z" fill="#7D7D7D"/>
</svg>
