<svg width="48" height="48" viewBox="0 0 48 48" fill="none" xmlns="http://www.w3.org/2000/svg">
<circle cx="24" cy="24" r="24" fill="#1872F2"/>
<path d="M21 14C18.38 14 16.25 16.13 16.25 18.75C16.25 21.32 18.26 23.4 20.88 23.49C20.96 23.48 21.04 23.48 21.1 23.49C21.12 23.49 21.13 23.49 21.15 23.49C21.16 23.49 21.16 23.49 21.17 23.49C23.73 23.4 25.74 21.32 25.75 18.75C25.75 16.13 23.62 14 21 14Z" fill="white"/>
<path d="M26.08 26.1499C23.29 24.2899 18.74 24.2899 15.93 26.1499C14.66 26.9999 13.96 28.1499 13.96 29.3799C13.96 30.6099 14.66 31.7499 15.92 32.5899C17.32 33.5299 19.16 33.9999 21 33.9999C22.84 33.9999 24.68 33.5299 26.08 32.5899C27.34 31.7399 28.04 30.5999 28.04 29.3599C28.03 28.1299 27.34 26.9899 26.08 26.1499Z" fill="white"/>
<path d="M31.9899 19.3401C32.1499 21.2801 30.7699 22.9801 28.8599 23.2101C28.8499 23.2101 28.8499 23.2101 28.8399 23.2101H28.8099C28.7499 23.2101 28.6899 23.2101 28.6399 23.2301C27.6699 23.2801 26.7799 22.9701 26.1099 22.4001C27.1399 21.4801 27.7299 20.1001 27.6099 18.6001C27.5399 17.7901 27.2599 17.0501 26.8399 16.4201C27.2199 16.2301 27.6599 16.1101 28.1099 16.0701C30.0699 15.9001 31.8199 17.3601 31.9899 19.3401Z" fill="white"/>
<path d="M33.9902 28.5899C33.9102 29.5599 33.2902 30.3999 32.2502 30.9699C31.2502 31.5199 29.9902 31.7799 28.7402 31.7499C29.4602 31.0999 29.8802 30.2899 29.9602 29.4299C30.0602 28.1899 29.4702 26.9999 28.2902 26.0499C27.6202 25.5199 26.8402 25.0999 25.9902 24.7899C28.2002 24.1499 30.9802 24.5799 32.6902 25.9599C33.6102 26.6999 34.0802 27.6299 33.9902 28.5899Z" fill="white"/>
</svg>
