<svg width="93" height="39" viewBox="0 0 93 39" fill="none" xmlns="http://www.w3.org/2000/svg">
<path d="M0.869318 30V0.90909H6.1392V25.5824H18.9517V30H0.869318ZM32.8153 30.4261C30.6847 30.4261 28.8381 29.9574 27.2756 29.0199C25.7131 28.0824 24.5009 26.7708 23.6392 25.0852C22.7869 23.3996 22.3608 21.4299 22.3608 19.1761C22.3608 16.9223 22.7869 14.9479 23.6392 13.2528C24.5009 11.5578 25.7131 10.2415 27.2756 9.30398C28.8381 8.36648 30.6847 7.89773 32.8153 7.89773C34.946 7.89773 36.7926 8.36648 38.3551 9.30398C39.9176 10.2415 41.125 11.5578 41.9773 13.2528C42.839 14.9479 43.2699 16.9223 43.2699 19.1761C43.2699 21.4299 42.839 23.3996 41.9773 25.0852C41.125 26.7708 39.9176 28.0824 38.3551 29.0199C36.7926 29.9574 34.946 30.4261 32.8153 30.4261ZM32.8438 26.3068C33.9991 26.3068 34.965 25.9896 35.7415 25.3551C36.518 24.7112 37.0956 23.8494 37.4744 22.7699C37.8627 21.6903 38.0568 20.4877 38.0568 19.1619C38.0568 17.8267 37.8627 16.6193 37.4744 15.5398C37.0956 14.4508 36.518 13.5843 35.7415 12.9403C34.965 12.2964 33.9991 11.9744 32.8438 11.9744C31.66 11.9744 30.6752 12.2964 29.8892 12.9403C29.1127 13.5843 28.5303 14.4508 28.142 15.5398C27.7633 16.6193 27.5739 17.8267 27.5739 19.1619C27.5739 20.4877 27.7633 21.6903 28.142 22.7699C28.5303 23.8494 29.1127 24.7112 29.8892 25.3551C30.6752 25.9896 31.66 26.3068 32.8438 26.3068ZM57.1229 38.6364C55.2763 38.6364 53.6901 38.3854 52.3643 37.8835C51.0386 37.3911 49.9732 36.7282 49.1683 35.8949C48.3634 35.0616 47.8047 34.1383 47.4922 33.125L52.1229 32.0028C52.3312 32.429 52.6342 32.8504 53.032 33.267C53.4297 33.6932 53.9647 34.0436 54.6371 34.3182C55.3189 34.6023 56.1759 34.7443 57.2081 34.7443C58.6664 34.7443 59.8738 34.3892 60.8303 33.679C61.7867 32.9782 62.2649 31.8229 62.2649 30.2131V26.0795H62.0092C61.7441 26.6098 61.3558 27.1544 60.8445 27.7131C60.3426 28.2718 59.675 28.7405 58.8416 29.1193C58.0178 29.4981 56.9808 29.6875 55.7308 29.6875C54.0547 29.6875 52.5348 29.2945 51.1712 28.5085C49.817 27.7131 48.7375 26.5294 47.9325 24.9574C47.1371 23.3759 46.7393 21.3968 46.7393 19.0199C46.7393 16.6241 47.1371 14.6023 47.9325 12.9545C48.7375 11.2973 49.8217 10.0426 51.1854 9.19034C52.549 8.3286 54.0689 7.89773 55.745 7.89773C57.0234 7.89773 58.0746 8.11553 58.8984 8.55114C59.7318 8.97727 60.3946 9.49337 60.8871 10.0994C61.3795 10.696 61.7536 11.2595 62.0092 11.7898H62.2933V8.18182H67.3643V30.3551C67.3643 32.2206 66.9193 33.7642 66.0291 34.9858C65.139 36.2074 63.9221 37.1212 62.3786 37.7273C60.835 38.3333 59.0831 38.6364 57.1229 38.6364ZM57.1655 25.6534C58.2545 25.6534 59.1825 25.3883 59.9496 24.858C60.7166 24.3277 61.299 23.5653 61.6967 22.571C62.0945 21.5767 62.2933 20.3835 62.2933 18.9915C62.2933 17.6184 62.0945 16.4157 61.6967 15.3835C61.3085 14.3513 60.7308 13.5511 59.9638 12.983C59.2062 12.4053 58.2734 12.1165 57.1655 12.1165C56.0197 12.1165 55.0632 12.4148 54.2962 13.0114C53.5291 13.608 52.9515 14.4271 52.5632 15.4688C52.175 16.5009 51.9808 17.6752 51.9808 18.9915C51.9808 20.3267 52.175 21.4962 52.5632 22.5C52.9609 23.4943 53.5433 24.2708 54.3104 24.8295C55.0869 25.3788 56.0386 25.6534 57.1655 25.6534ZM82.1513 30.4261C80.0206 30.4261 78.174 29.9574 76.6115 29.0199C75.049 28.0824 73.8369 26.7708 72.9751 25.0852C72.1229 23.3996 71.6967 21.4299 71.6967 19.1761C71.6967 16.9223 72.1229 14.9479 72.9751 13.2528C73.8369 11.5578 75.049 10.2415 76.6115 9.30398C78.174 8.36648 80.0206 7.89773 82.1513 7.89773C84.282 7.89773 86.1286 8.36648 87.6911 9.30398C89.2536 10.2415 90.4609 11.5578 91.3132 13.2528C92.175 14.9479 92.6058 16.9223 92.6058 19.1761C92.6058 21.4299 92.175 23.3996 91.3132 25.0852C90.4609 26.7708 89.2536 28.0824 87.6911 29.0199C86.1286 29.9574 84.282 30.4261 82.1513 30.4261ZM82.1797 26.3068C83.335 26.3068 84.3009 25.9896 85.0774 25.3551C85.8539 24.7112 86.4316 23.8494 86.8104 22.7699C87.1986 21.6903 87.3928 20.4877 87.3928 19.1619C87.3928 17.8267 87.1986 16.6193 86.8104 15.5398C86.4316 14.4508 85.8539 13.5843 85.0774 12.9403C84.3009 12.2964 83.335 11.9744 82.1797 11.9744C80.996 11.9744 80.0111 12.2964 79.2251 12.9403C78.4486 13.5843 77.8662 14.4508 77.478 15.5398C77.0992 16.6193 76.9098 17.8267 76.9098 19.1619C76.9098 20.4877 77.0992 21.6903 77.478 22.7699C77.8662 23.8494 78.4486 24.7112 79.2251 25.3551C80.0111 25.9896 80.996 26.3068 82.1797 26.3068Z" fill="#E1E1E1"/>
</svg>
