<svg width="16" height="16" viewBox="0 0 16 16" fill="none" xmlns="http://www.w3.org/2000/svg">
<path d="M9.61998 3.45326C9.74665 3.45326 9.87331 3.49992 9.97331 3.59992L14.02 7.64659C14.2133 7.83992 14.2133 8.15992 14.02 8.35326L9.97331 12.3999C9.77998 12.5933 9.45998 12.5933 9.26664 12.3999C9.07331 12.2066 9.07331 11.8866 9.26664 11.6933L12.96 7.99992L9.26665 4.30659C9.07331 4.11325 9.07331 3.79325 9.26665 3.59992C9.35998 3.49992 9.49331 3.45326 9.61998 3.45326Z" fill="#292D32"/>
<path d="M2.33334 7.5L13.5533 7.5C13.8267 7.5 14.0533 7.72667 14.0533 8C14.0533 8.27333 13.8267 8.5 13.5533 8.5L2.33334 8.5C2.06001 8.5 1.83334 8.27333 1.83334 8C1.83334 7.72667 2.06001 7.5 2.33334 7.5Z" fill="#353535"/>
</svg>
