<svg width="25" height="24" viewBox="0 0 25 24" fill="none" xmlns="http://www.w3.org/2000/svg">
<path d="M7.38075 15.2277C5.7876 14.1656 3.18945 14.1656 1.58487 15.2277C0.859677 15.7131 0.459961 16.3698 0.459961 17.0721C0.459961 17.7745 0.859677 18.4255 1.57916 18.9051C2.3786 19.4419 3.42928 19.7103 4.47996 19.7103C5.53064 19.7103 6.58132 19.4419 7.38075 18.9051C8.10024 18.4197 8.49996 17.7688 8.49996 17.0607C8.49425 16.3584 8.10024 15.7074 7.38075 15.2277Z" fill="white"/>
<path opacity="0.4" d="M4.47993 8.29004C2.98386 8.29004 1.76758 9.50632 1.76758 11.0024C1.76758 12.4699 2.91533 13.6576 4.41141 13.709C4.45709 13.7033 4.50278 13.7033 4.53704 13.709C4.54846 13.709 4.55417 13.709 4.56559 13.709C4.5713 13.709 4.5713 13.709 4.57701 13.709C6.03883 13.6576 7.18658 12.4699 7.19229 11.0024C7.19229 9.50632 5.97601 8.29004 4.47993 8.29004Z" fill="white"/>
<path d="M23.3983 15.5173C21.8052 14.4552 19.207 14.4552 17.6025 15.5173C16.8773 16.0026 16.4775 16.6593 16.4775 17.3617C16.4775 18.064 16.8773 18.715 17.5967 19.1947C18.3962 19.7314 19.4469 19.9998 20.4975 19.9998C21.5482 19.9998 22.5989 19.7314 23.3983 19.1947C24.1178 18.7093 24.5175 18.0583 24.5175 17.3503C24.5118 16.6479 24.1178 15.9969 23.3983 15.5173Z" fill="white"/>
<path opacity="0.4" d="M20.4975 8.57959C19.0014 8.57959 17.7852 9.79587 17.7852 11.2919C17.7852 12.7595 18.9329 13.9472 20.429 13.9986C20.4747 13.9929 20.5204 13.9929 20.5546 13.9986C20.566 13.9986 20.5717 13.9986 20.5832 13.9986C20.5889 13.9986 20.5889 13.9986 20.5946 13.9986C22.0564 13.9472 23.2042 12.7595 23.2099 11.2919C23.2099 9.79587 21.9936 8.57959 20.4975 8.57959Z" fill="white"/>
<path opacity="0.4" d="M12.5 2C9.88 2 7.75 4.13 7.75 6.75C7.75 9.32 9.76 11.4 12.38 11.49C12.46 11.48 12.54 11.48 12.6 11.49C12.62 11.49 12.63 11.49 12.65 11.49C12.66 11.49 12.66 11.49 12.67 11.49C15.23 11.4 17.24 9.32 17.25 6.75C17.25 4.13 15.12 2 12.5 2Z" fill="white"/>
<path d="M17.58 14.1499C14.79 12.2899 10.24 12.2899 7.42996 14.1499C6.15996 14.9999 5.45996 16.1499 5.45996 17.3799C5.45996 18.6099 6.15996 19.7499 7.41996 20.5899C8.81996 21.5299 10.66 21.9999 12.5 21.9999C14.34 21.9999 16.18 21.5299 17.58 20.5899C18.84 19.7399 19.54 18.5999 19.54 17.3599C19.53 16.1299 18.84 14.9899 17.58 14.1499Z" fill="white"/>
</svg>
