<svg width="64" height="64" viewBox="0 0 64 64" fill="none" xmlns="http://www.w3.org/2000/svg">
<path opacity="0.4" d="M54.6667 27.1733H46.96C40.64 27.1733 35.4933 22.0266 35.4933 15.7066V7.99992C35.4933 6.53325 34.2933 5.33325 32.8267 5.33325H21.52C13.3067 5.33325 6.66666 10.6666 6.66666 20.1866V43.8133C6.66666 53.3333 13.3067 58.6666 21.52 58.6666H42.48C50.6933 58.6666 57.3333 53.3333 57.3333 43.8133V29.8399C57.3333 28.3733 56.1333 27.1733 54.6667 27.1733Z" fill="#1872F2"/>
<path d="M42.1333 5.8934C41.04 4.80006 39.1467 5.54673 39.1467 7.06673V16.3734C39.1467 20.2667 42.4533 23.4934 46.48 23.4934C49.0133 23.5201 52.5333 23.5201 55.5467 23.5201C57.0667 23.5201 57.8667 21.7334 56.8 20.6667C52.96 16.8001 46.08 9.84006 42.1333 5.8934Z" fill="#1872F2"/>
<path d="M30.7467 33.2533L25.4133 27.9199C25.3867 27.8933 25.36 27.8933 25.36 27.8666C25.2 27.7066 24.9867 27.5733 24.7733 27.4666C24.7467 27.4666 24.7467 27.4666 24.72 27.4666C24.5067 27.3866 24.2933 27.3599 24.08 27.3333C24 27.3333 23.9467 27.3333 23.8667 27.3333C23.7067 27.3333 23.52 27.3866 23.36 27.4399C23.28 27.4666 23.2267 27.4933 23.1733 27.5199C22.96 27.6266 22.7467 27.7333 22.5867 27.9199L17.2533 33.2533C16.48 34.0266 16.48 35.3066 17.2533 36.0799C18.0267 36.8533 19.3067 36.8533 20.08 36.0799L22 34.1599V45.3333C22 46.4266 22.9067 47.3333 24 47.3333C25.0933 47.3333 26 46.4266 26 45.3333V34.1599L27.92 36.0799C28.32 36.4799 28.8267 36.6666 29.3333 36.6666C29.84 36.6666 30.3467 36.4799 30.7467 36.0799C31.52 35.3066 31.52 34.0266 30.7467 33.2533Z" fill="#1872F2"/>
</svg>
