<svg width="25" height="24" viewBox="0 0 25 24" fill="none" xmlns="http://www.w3.org/2000/svg">
<path opacity="0.4" d="M18.97 16.83L19.36 19.99C19.46 20.82 18.57 21.4 17.86 20.97L13.67 18.48C13.21 18.48 12.76 18.45 12.32 18.39C13.06 17.52 13.5 16.42 13.5 15.23C13.5 12.39 11.04 10.09 7.99997 10.09C6.83997 10.09 5.76997 10.42 4.87997 11C4.84997 10.75 4.83997 10.5 4.83997 10.24C4.83997 5.68999 8.78997 2 13.67 2C18.55 2 22.5 5.68999 22.5 10.24C22.5 12.94 21.11 15.33 18.97 16.83Z" fill="#1872F2"/>
<path d="M13.5 15.2298C13.5 16.4198 13.06 17.5198 12.32 18.3898C11.33 19.5898 9.76 20.3598 8 20.3598L5.39 21.9098C4.95 22.1798 4.39 21.8098 4.45 21.2998L4.7 19.3298C3.36 18.3998 2.5 16.9098 2.5 15.2298C2.5 13.4698 3.44 11.9198 4.88 10.9998C5.77 10.4198 6.84 10.0898 8 10.0898C11.04 10.0898 13.5 12.3898 13.5 15.2298Z" fill="#1872F2"/>
</svg>
