<svg width="32" height="32" viewBox="0 0 32 32" fill="none" xmlns="http://www.w3.org/2000/svg">
<path opacity="0.4" d="M27.2 21.7734C26.8267 22.7734 26.04 23.5334 25.0133 23.8801C23.5733 24.3601 22.0933 24.7201 20.6 24.9734C20.4533 25.0001 20.3067 25.0267 20.16 25.0401C19.92 25.0801 19.68 25.1067 19.44 25.1334C19.1467 25.1734 18.84 25.2001 18.5333 25.2267C17.6933 25.2934 16.8667 25.3334 16.0267 25.3334C15.1733 25.3334 14.32 25.2934 13.48 25.2134C13.12 25.1867 12.7733 25.1467 12.4267 25.0934C12.2267 25.0667 12.0267 25.0401 11.84 25.0134C11.6933 24.9867 11.5467 24.9734 11.4 24.9467C9.92001 24.7067 8.45334 24.3467 7.02667 23.8667C5.96001 23.5067 5.14667 22.7467 4.78667 21.7734C4.42667 20.8134 4.56001 19.6934 5.13334 18.7334L6.64001 16.2267C6.96001 15.6801 7.25334 14.6267 7.25334 13.9867V11.5067C7.25334 6.66673 11.1867 2.7334 16.0267 2.7334C20.8533 2.7334 24.7867 6.66673 24.7867 11.5067V13.9867C24.7867 14.6267 25.08 15.6801 25.4133 16.2267L26.92 18.7334C27.4667 19.6667 27.5733 20.7601 27.2 21.7734Z" fill="#292D32"/>
<path d="M19.7733 26.6801C19.2133 28.2267 17.7333 29.3334 16 29.3334C14.9467 29.3334 13.9067 28.9067 13.1733 28.1467C12.7467 27.7467 12.4267 27.2134 12.24 26.6667C12.4133 26.6934 12.5867 26.7067 12.7733 26.7334C13.08 26.7734 13.4 26.8134 13.72 26.8401C14.48 26.9067 15.2533 26.9467 16.0267 26.9467C16.7867 26.9467 17.5467 26.9067 18.2933 26.8401C18.5733 26.8134 18.8533 26.8001 19.12 26.7601C19.3333 26.7334 19.5467 26.7067 19.7733 26.6801Z" fill="#292D32"/>
</svg>
