<svg width="16" height="16" viewBox="0 0 16 16" fill="none" xmlns="http://www.w3.org/2000/svg">
<path d="M14.04 7.8799L13.9334 7.73324C13.7467 7.50657 13.5267 7.32657 13.2734 7.19324C12.9334 6.9999 12.5467 6.8999 12.1467 6.8999H3.8467C3.4467 6.8999 3.0667 6.9999 2.72003 7.19324C2.46003 7.33324 2.2267 7.52657 2.03336 7.76657C1.65336 8.25324 1.47336 8.85324 1.53336 9.45324L1.78003 12.5666C1.8667 13.5066 1.98003 14.6666 4.09336 14.6666H11.9067C14.02 14.6666 14.1267 13.5066 14.22 12.5599L14.4667 9.4599C14.5267 8.8999 14.38 8.3399 14.04 7.8799ZM9.59336 11.5599H6.40003C6.14003 11.5599 5.93336 11.3466 5.93336 11.0932C5.93336 10.8399 6.14003 10.6266 6.40003 10.6266H9.59336C9.85336 10.6266 10.06 10.8399 10.06 11.0932C10.06 11.3532 9.85336 11.5599 9.59336 11.5599Z" fill="white"/>
<path opacity="0.4" d="M2.25336 7.53992C2.40002 7.40659 2.54669 7.28659 2.72002 7.19325C3.06002 6.99992 3.44669 6.89992 3.84669 6.89992H12.1534C12.5534 6.89992 12.9334 6.99992 13.28 7.19325C13.4534 7.28659 13.6067 7.40659 13.7467 7.54659V7.19325V6.54659C13.7467 4.16659 13.02 3.43992 10.64 3.43992H9.05336C8.76002 3.43992 8.75336 3.43325 8.58002 3.20659L7.78002 2.13325C7.40002 1.63992 7.10002 1.33325 6.14669 1.33325H5.36002C2.98002 1.33325 2.25336 2.05992 2.25336 4.43992V7.19992V7.53992Z" fill="white"/>
</svg>
