<svg width="25" height="24" viewBox="0 0 25 24" fill="none" xmlns="http://www.w3.org/2000/svg">
<path opacity="0.4" d="M12.5 2C9.88 2 7.75 4.13 7.75 6.75C7.75 9.32 9.76 11.4 12.38 11.49C12.46 11.48 12.54 11.48 12.6 11.49C12.62 11.49 12.63 11.49 12.65 11.49C12.66 11.49 12.66 11.49 12.67 11.49C15.23 11.4 17.24 9.32 17.25 6.75C17.25 4.13 15.12 2 12.5 2Z" fill="#1872F2"/>
<path d="M17.58 14.1596C14.79 12.2996 10.24 12.2996 7.42996 14.1596C6.15996 14.9996 5.45996 16.1496 5.45996 17.3796C5.45996 18.6096 6.15996 19.7496 7.41996 20.5896C8.81996 21.5296 10.66 21.9996 12.5 21.9996C14.34 21.9996 16.18 21.5296 17.58 20.5896C18.84 19.7396 19.54 18.5996 19.54 17.3596C19.53 16.1396 18.84 14.9896 17.58 14.1596Z" fill="#1872F2"/>
<path opacity="0.4" d="M11.87 19.26C11.71 19.26 11.55 19.19 11.43 19.08L10.17 17.82C9.92999 17.58 9.92999 17.18 10.17 16.94C10.41 16.7 10.81 16.7 11.05 16.94L11.87 17.76L13.95 15.68C14.19 15.44 14.59 15.44 14.83 15.68C15.07 15.92 15.07 16.32 14.83 16.56L12.31 19.08C12.19 19.2 12.03 19.26 11.87 19.26Z" fill="white"/>
</svg>
